<svg xmlns="http://www.w3.org/2000/svg" viewBox="0 0 200 120">
  <circle cx="100" cy="60" r="22" fill="#5a8a5a" opacity=".5"></circle>
  <g transform="translate(45,30)"><circle cx="0" cy="10" r="7" fill="#c5462e" stroke="#2a2418" stroke-width="1.5"></circle><rect x="-7" y="17" width="14" height="24" rx="3" fill="#c5462e" stroke="#2a2418" stroke-width="1.5"></rect></g>
  <g transform="translate(78,22)"><circle cx="0" cy="10" r="7" fill="#e0a84a" stroke="#2a2418" stroke-width="1.5"></circle><rect x="-7" y="17" width="14" height="24" rx="3" fill="#e0a84a" stroke="#2a2418" stroke-width="1.5"></rect></g>
  <g transform="translate(111,22)"><circle cx="0" cy="10" r="7" fill="#5a8a5a" stroke="#2a2418" stroke-width="1.5"></circle><rect x="-7" y="17" width="14" height="24" rx="3" fill="#5a8a5a" stroke="#2a2418" stroke-width="1.5"></rect></g>
  <g transform="translate(144,30)"><circle cx="0" cy="10" r="7" fill="#7a4ab8" stroke="#2a2418" stroke-width="1.5"></circle><rect x="-7" y="17" width="14" height="24" rx="3" fill="#7a4ab8" stroke="#2a2418" stroke-width="1.5"></rect></g>
  <path d="M52 46 Q65 42 78 44 M85 44 Q98 42 111 44 M118 44 Q131 42 144 46" stroke="#fff8e8" stroke-width="1.8" fill="none" stroke-linecap="round"></path>
</svg>